<svg xmlns="http://www.w3.org/2000/svg" viewBox="0 0 358.47 104"><defs><style>.a{fill:#2395f3;}.b{fill:#fff;}</style></defs><title>logo-light</title><rect class="a" width="198" height="104"/><path class="b" d="M33.18,14c13.5,0,23,9.46,23,23.06S46.58,60.18,33.08,60.18H16.5V85.83h-9V14ZM16.5,52.21H30.84C41.1,52.21,47,46.58,47,37S41.15,21.93,30.84,21.93H16.5Z"/><path class="b" d="M129.9,49.92c0,22.81-12.75,37.1-33.12,37.1S63.66,72.73,63.66,49.92,76.41,12.76,96.78,12.76,129.9,27.11,129.9,49.92Zm-57,0c0,17.68,9.21,28.84,23.91,28.84s23.91-11.16,23.91-28.84S111.47,21,96.78,21,72.88,32.19,72.88,49.92Z"/><path class="b" d="M146.64,66.05c.85,7.77,8.22,12.9,18.48,12.9,9.71,0,16.78-5.13,16.78-12.2,0-6.08-4.23-9.81-13.9-12.3l-9.21-2.39c-13.25-3.39-19.12-9.21-19.12-19,0-12,10.46-20.32,25.4-20.32,14.29,0,24.65,8.47,25.05,20.52h-9c-.8-7.72-7-12.45-16.39-12.45S149,25.66,149,32.69c0,5.43,4,8.67,13.75,11.21l7.52,2c14.89,3.74,20.92,9.46,20.92,19.77C191.16,78.8,180.8,87,164.27,87c-15.24,0-25.8-8.27-26.65-21Z"/><path d="M246.11,66.05C247,73.82,254.33,79,264.59,79c9.71,0,16.78-5.13,16.78-12.2,0-6.08-4.23-9.81-13.9-12.3l-9.21-2.39c-13.25-3.39-19.12-9.21-19.12-19,0-12,10.46-20.32,25.4-20.32,14.29,0,24.65,8.47,25.05,20.52h-9c-.8-7.72-7-12.45-16.39-12.45s-15.79,4.83-15.79,11.85c0,5.43,4,8.67,13.75,11.21l7.52,2c14.89,3.74,20.92,9.46,20.92,19.77C290.63,78.8,280.28,87,263.74,87c-15.24,0-25.8-8.27-26.65-21Z"/><path d="M349.5,85.83V53.1H310.06V85.83h-9V14h9V45H349.5V14h9V85.83Z"/><rect x="215" width="8" height="104"/><polygon points="237 96 237 100 237 104 219 104 201 104 201 100 201 96 219 94 237 96"/><polygon points="201 8 201 4 201 0 219 0 237 0 237 4 237 8 219 10 201 8"/></svg>